<svg id="e2fTiUsdp6I1" xmlns="http://www.w3.org/2000/svg" xmlns:xlink="http://www.w3.org/1999/xlink" viewBox="0 0 187 202" shape-rendering="geometricPrecision" text-rendering="geometricPrecision"><g id="e2fTiUsdp6I2"><g id="e2fTiUsdp6I3"><path id="e2fTiUsdp6I4" d="M199.869,195.287C196.735,198.964,192.418,200.739,188.082,202.499C193.293,201.764,197.56,198.964,201.808,196.12C201.94,196.249,202.072,196.379,202.205,196.508C201.326,197.643,200.561,198.895,199.547,199.89C196.584,202.797,192.955,204.611,189.06,205.934C185.483,207.149,181.905,208.359,178.334,209.591C172.75,211.518,167.081,212.856,161.121,211.909C158.001,211.413,155.246,210.199,153.342,207.503C152.54,206.368,152.255,205.381,153.603,204.364C154.878,203.402,154.711,202.08,154.208,200.719C152.916,197.215,153.06,196.179,156.108,194.033C158.595,192.282,161.328,190.829,164.088,189.533C166.305,188.491,168.69,188.962,170.947,189.759C175.489,191.362,179.311,194.177,183.009,197.141C184.407,198.262,185.835,198.751,187.577,198.799C191.043,198.895,194.153,197.813,197.14,196.204C197.955,195.765,198.79,195.361,199.615,194.94C199.7,195.057,199.784,195.172,199.869,195.287Z" transform="matrix(1 0 0 1 -49.743492 -18.286664)" clip-rule="evenodd" fill="rgb(0,0,0)" fill-rule="evenodd" stroke="none" stroke-width="1"/><path id="e2fTiUsdp6I5" d="M150.234,183.921C152.204,188.003,153.797,188.619,158.067,187.214C158.754,186.988,159.498,186.521,160.124,186.641C160.874,186.785,161.525,187.44,162.219,187.874C161.8,188.445,161.498,189.209,160.939,189.552C159.147,190.653,157.148,191.438,155.435,192.639C152.494,194.702,151.664,197.576,152.757,201.035C152.967,201.701,153.037,203.003,152.784,203.113C151.946,203.475,150.916,203.571,149.988,203.481C149.387,203.423,148.785,202.924,148.269,202.516C142.016,197.584,139.524,187.29,142.799,180.007C143.699,178.006,144.318,177.782,145.955,179.29C147.496,180.708,148.816,182.367,150.234,183.921Z" transform="matrix(1 0 0 1 -49.743492 -18.286664)" clip-rule="evenodd" fill="rgb(0,0,0)" fill-rule="evenodd" stroke="none" stroke-width="1"/><path id="e2fTiUsdp6I6" d="M150.396,182.049C149.48,180.012,147.822,178.599,145.814,177.487C144.302,176.649,144.315,175.921,145.856,175.22C150.294,173.203,154.879,171.662,159.803,171.443C162.133,171.339,164.391,171.656,166.217,173.304C167.626,174.576,167.492,175.39,165.724,176.076C163.546,176.92,161.288,177.569,159.144,178.488C156.985,179.414,155.382,181.015,154.31,183.153C153.983,183.805,153.38,184.32,152.902,184.896C152.32,184.355,151.71,183.84,151.168,183.262C150.869,182.941,150.685,182.514,150.396,182.049Z" transform="matrix(1 0 0 1 -49.743492 -18.286664)" clip-rule="evenodd" fill="rgb(0,0,0)" fill-rule="evenodd" stroke="none" stroke-width="1"/><path id="e2fTiUsdp6I7" d="M172.197,177.135C170.711,177.375,169.314,177.6,167.899,177.828C167.813,177.598,167.695,177.444,167.71,177.305C168.101,173.792,167.047,172.128,163.645,170.919C163.331,170.807,162.947,170.773,162.721,170.565C162.477,170.339,162.193,169.899,162.265,169.651C162.363,169.316,162.74,168.906,163.072,168.819C165.643,168.154,168.241,167.588,170.816,166.933C172.909,166.4,173.535,166.785,173.853,168.931C174.048,170.244,174.262,171.555,174.49,173.016C172.67,173.678,172.106,175.263,172.197,177.135Z" transform="matrix(1 0 0 1 -49.743492 -18.286664)" clip-rule="evenodd" fill="rgb(0,0,0)" fill-rule="evenodd" stroke="none" stroke-width="1"/></g></g><g id="e2fTiUsdp6I8"><g id="e2fTiUsdp6I9"><path id="e2fTiUsdp6I10" d="M221.385,141.396C224.236,149.437,223.467,157.487,221.612,165.59C221.12,167.736,221.309,170.028,221.014,172.23C220.507,176.028,219.355,179.637,217.164,182.82C216.399,183.933,215.375,184.867,214.235,185.748C216,180.988,217.808,176.315,217.633,171.171C216.728,175.685,215.758,180.159,212.456,183.77C212.716,182.799,212.938,181.815,213.244,180.857C214.408,177.217,214.818,173.545,213.555,169.859C213.266,169.014,212.69,168.204,212.067,167.547C209.045,164.362,205.796,161.376,202.947,158.045C200.159,154.786,199.352,150.899,200.967,146.768C201.935,144.29,202.976,141.831,204.156,139.45C204.966,137.815,206.477,137.263,208.267,137.71C210.383,138.237,212.227,138.211,213.378,135.886C213.542,135.554,214.671,135.34,215.097,135.562C216.604,136.349,218,137.349,219.437,138.268C220.087,139.312,220.736,140.354,221.385,141.396Z" transform="matrix(1 0 0 1 -49.743492 -18.286664)" clip-rule="evenodd" fill="rgb(0,0,0)" fill-rule="evenodd" stroke="none" stroke-width="1"/><path id="e2fTiUsdp6I11" d="M188.182,129.841C195.037,126.272,202.28,126.574,209.251,131.21C210.255,131.878,211.117,133.001,211.632,134.105C212.369,135.685,211.519,136.636,209.79,136.495C205.165,136.119,202.837,137.487,201.12,141.806C200.508,143.346,200.296,145.043,199.714,146.598C199.47,147.244,198.735,147.706,198.223,148.252C197.688,147.572,196.843,146.952,196.696,146.196C196.503,145.208,196.907,144.114,196.976,143.061C197.191,139.774,196.069,138.322,192.99,137.207C191.074,136.514,189.178,135.625,187.48,134.509C184.79,132.74,184.895,131.781,188.182,129.841Z" transform="matrix(1 0 0 1 -49.743492 -18.286664)" clip-rule="evenodd" fill="rgb(0,0,0)" fill-rule="evenodd" stroke="none" stroke-width="1"/><path id="e2fTiUsdp6I12" d="M182.811,153.273C182.376,151.28,181.545,149.277,181.591,147.295C181.689,143.194,182.223,139.099,182.663,135.011C182.726,134.426,183.264,133.89,183.582,133.332C184.11,133.68,184.779,133.918,185.142,134.392C186.767,136.511,189.092,137.375,191.472,138.237C192.245,138.517,192.881,139.177,193.58,139.664C193.075,140.278,192.658,141.007,192.046,141.486C189.594,143.405,188.552,146.047,188.068,148.978C187.815,150.515,187.771,152.09,187.483,153.621C187.351,154.318,186.983,155.347,186.496,155.499C185.946,155.671,185.076,155.121,184.466,154.706C183.932,154.343,183.564,153.734,183.123,153.233C183.019,153.246,182.915,153.26,182.811,153.273Z" transform="matrix(1 0 0 1 -49.743492 -18.286664)" clip-rule="evenodd" fill="rgb(0,0,0)" fill-rule="evenodd" stroke="none" stroke-width="1"/><path id="e2fTiUsdp6I13" d="M189.548,155.41C189.611,157.136,189.663,158.547,189.721,160.108C188.033,160.448,186.389,161.069,186.211,163.177C184.628,163.248,183.141,163.342,181.651,163.373C179.885,163.41,179.359,162.835,179.437,161.091C179.562,158.322,179.655,155.551,179.824,152.785C179.845,152.443,180.187,151.997,180.501,151.838C180.726,151.723,181.266,151.905,181.466,152.13C181.863,152.583,182.086,153.184,182.449,153.676C184.236,156.102,186.427,157.218,189.548,155.41Z" transform="matrix(1 0 0 1 -49.743492 -18.286664)" clip-rule="evenodd" fill="rgb(0,0,0)" fill-rule="evenodd" stroke="none" stroke-width="1"/></g></g><g id="e2fTiUsdp6I14"><g id="e2fTiUsdp6I15"><path id="e2fTiUsdp6I16" d="M135.435,172.302C139.948,170.393,144.28,168.512,148.653,166.733C150.503,165.98,151.049,166.287,151.837,168.169C152.134,168.879,152.362,169.633,152.506,170.39C152.696,171.381,152.339,172.23,151.31,172.472C146.781,173.533,142.241,174.55,137.694,175.531C137.182,175.641,136.531,175.548,136.065,175.313C135.474,175.015,134.69,174.543,134.574,174.017C134.466,173.526,135.125,172.868,135.435,172.302Z" transform="matrix(1 0 0 1 -49.743492 -18.286664)" clip-rule="evenodd" fill="rgb(0,0,0)" fill-rule="evenodd" stroke="none" stroke-width="1"/><path id="e2fTiUsdp6I17" d="M129.687,186.375C127.953,183.75,128.268,179.569,130.068,177.452C130.392,177.07,130.75,176.714,131.117,176.372C133.181,174.455,134.644,174.347,136.779,176.093C137.071,176.332,137.128,177.101,137.014,177.556C136.332,180.289,135.435,182.899,132.806,184.491C132.16,184.882,131.77,185.686,131.132,186.1C130.697,186.384,130.037,186.319,129.687,186.375Z" transform="matrix(1 0 0 1 -49.743492 -18.286664)" clip-rule="evenodd" fill="rgb(0,0,0)" fill-rule="evenodd" stroke="none" stroke-width="1"/><path id="e2fTiUsdp6I18" d="M160.195,166.15C160.745,168.623,157.073,171.279,154.367,171.048C153.569,170.98,151.698,166.434,152.307,165.932C152.867,165.47,153.857,165.47,154.318,164.959C155.161,164.025,155.655,164.831,156.329,165.056C157.518,165.453,158.74,165.746,160.195,166.15Z" transform="matrix(1 0 0 1 -49.743492 -18.286664)" clip-rule="evenodd" fill="rgb(0,0,0)" fill-rule="evenodd" stroke="none" stroke-width="1"/><path id="e2fTiUsdp6I19" d="M138.33,192.814C137.381,193.086,136.865,192.784,136.209,191.93C135.045,190.415,133.533,189.163,132.134,187.836C131.751,187.473,131.249,187.234,130.683,186.859C131.339,186.372,131.813,185.998,132.308,185.656C133.488,184.84,134.465,185.032,135.304,186.218C136.461,187.852,137.634,189.476,138.866,191.052C139.632,192.031,139.053,192.419,138.269,192.8L138.33,192.814Z" transform="matrix(1 0 0 1 -49.743492 -18.286664)" clip-rule="evenodd" fill="rgb(0,0,0)" fill-rule="evenodd" stroke="none" stroke-width="1"/><path id="e2fTiUsdp6I20" d="M138.27,192.801C139.583,194.802,139.307,196.455,137.418,197.888C135.523,196.414,135.908,194.262,138.328,192.813C138.33,192.814,138.27,192.801,138.27,192.801Z" transform="matrix(1 0 0 1 -49.743492 -18.286664)" clip-rule="evenodd" fill="rgb(0,0,0)" fill-rule="evenodd" stroke="none" stroke-width="1"/></g></g><g id="e2fTiUsdp6I21"><g id="e2fTiUsdp6I22"><path id="e2fTiUsdp6I23" d="M183.93,120.356C183.964,121.059,184.273,122.312,184.035,123.45C183.241,127.254,182.347,131.043,181.303,134.784C180.618,137.24,179.722,137.557,177.335,136.709C174.693,135.77,174.283,135.088,175.392,132.555C177.219,128.383,179.154,124.257,181.148,120.162C181.857,118.707,182.918,118.673,183.93,120.356Z" transform="matrix(1 0 0 1 -49.743492 -18.286664)" clip-rule="evenodd" fill="rgb(0,0,0)" fill-rule="evenodd" stroke="none" stroke-width="1"/><path id="e2fTiUsdp6I24" d="M186.574,114.335C189.508,112.696,192.077,113.012,194.611,114.177C195.524,114.597,195.632,115.203,194.799,115.97C193.78,116.906,192.808,117.911,191.929,118.98C190.252,121.021,187.701,121.015,185.511,121.854C185.417,121.89,185.288,121.87,185.186,121.84C184.307,121.588,183.181,117.795,183.812,117.133C184.804,116.089,185.833,115.083,186.574,114.335Z" transform="matrix(1 0 0 1 -49.743492 -18.286664)" clip-rule="evenodd" fill="rgb(0,0,0)" fill-rule="evenodd" stroke="none" stroke-width="1"/><path id="e2fTiUsdp6I25" d="M174.486,144.627C173.977,143.085,173.468,141.666,173.06,140.218C172.953,139.841,173.125,139.364,173.241,138.954C173.295,138.766,173.57,138.651,173.665,138.463C174.698,136.429,174.702,136.41,176.86,137.369C177.724,137.753,179.273,138.271,179.251,138.66C179.178,140.027,178.758,141.473,178.093,142.681C177.259,144.198,175.873,144.698,174.486,144.627Z" transform="matrix(1 0 0 1 -49.743492 -18.286664)" clip-rule="evenodd" fill="rgb(0,0,0)" fill-rule="evenodd" stroke="none" stroke-width="1"/><path id="e2fTiUsdp6I26" d="M201.333,123.14C200.893,124.355,200.295,124.341,199.375,123.524C198.256,122.529,197.059,121.608,195.826,120.757C193.199,118.944,193.122,118.137,195.653,115.59C195.927,116.031,196.117,116.483,196.432,116.818C197.865,118.34,199.355,119.807,200.771,121.343C201.096,121.695,201.204,122.244,201.413,122.703C201.386,122.849,201.36,122.994,201.333,123.14Z" transform="matrix(1 0 0 1 -49.743492 -18.286664)" clip-rule="evenodd" fill="rgb(0,0,0)" fill-rule="evenodd" stroke="none" stroke-width="1"/><path id="e2fTiUsdp6I27" d="M201.333,123.14C201.359,122.994,201.386,122.849,201.413,122.704C202.261,122.19,203.057,121.442,203.974,121.24C204.655,121.089,205.94,121.446,206.157,121.931C206.477,122.651,205.841,123.437,204.871,123.743C203.555,124.158,202.377,124.142,201.333,123.14Z" transform="matrix(1 0 0 1 -49.743492 -18.286664)" clip-rule="evenodd" fill="rgb(0,0,0)" fill-rule="evenodd" stroke="none" stroke-width="1"/></g></g><g id="e2fTiUsdp6I28"><g id="e2fTiUsdp6I29"><path id="e2fTiUsdp6I30" d="M140.333,159.124C140.379,160.915,140.548,162.4,140.382,163.848C140.325,164.331,139.414,165.09,138.894,165.09C134.117,165.09,129.341,164.953,124.563,164.85C124.458,164.848,124.35,164.789,124.247,164.747C123.136,164.289,121.592,164.084,121.617,162.58C121.643,161.005,123.278,161.103,124.327,160.913C128.817,160.099,133.325,159.381,137.838,158.715C138.545,158.608,139.315,158.943,140.333,159.124Z" transform="matrix(1 0 0 1 -49.743492 -18.286664)" clip-rule="evenodd" fill="rgb(0,0,0)" fill-rule="evenodd" stroke="none" stroke-width="1"/><path id="e2fTiUsdp6I31" d="M118.795,171.717C117.905,172.211,116.527,172.93,115.198,173.729C114.111,174.384,113.71,173.889,113.463,172.883C112.662,169.613,114.165,165.99,117.088,164.266C117.9,163.787,118.724,163.295,119.604,162.982C120.016,162.836,120.657,162.966,121.048,163.208C121.791,163.666,122.481,164.245,123.088,164.875C123.371,165.167,123.667,165.87,123.519,166.09C122.236,167.987,121.603,170.413,118.795,171.717Z" transform="matrix(1 0 0 1 -49.743492 -18.286664)" clip-rule="evenodd" fill="rgb(0,0,0)" fill-rule="evenodd" stroke="none" stroke-width="1"/><path id="e2fTiUsdp6I32" d="M144.798,157.842C146.191,158.925,147.584,160.009,149.295,161.34C149.377,163.659,144.774,165.431,142.152,164.419C141.388,164.124,140.791,159.069,141.512,158.782C142.586,158.354,143.753,158.159,144.879,157.865C144.878,157.864,144.798,157.842,144.798,157.842Z" transform="matrix(1 0 0 1 -49.743492 -18.286664)" clip-rule="evenodd" fill="rgb(0,0,0)" fill-rule="evenodd" stroke="none" stroke-width="1"/><path id="e2fTiUsdp6I33" d="M115.502,174.405C118.227,172.693,119.115,173.011,120.16,176.022C120.616,177.331,121.141,178.623,121.729,179.879C122.525,181.584,122.493,181.689,120.652,181.806C120.387,181.822,120.127,181.911,120.171,181.901C118.553,179.303,117.026,176.851,115.502,174.405Z" transform="matrix(1 0 0 1 -49.743492 -18.286664)" clip-rule="evenodd" fill="rgb(0,0,0)" fill-rule="evenodd" stroke="none" stroke-width="1"/><path id="e2fTiUsdp6I34" d="M121.548,182.518C122.689,185.086,121.189,186.349,119.38,187.455C117.744,185.843,118.591,183.739,121.548,182.518Z" transform="matrix(1 0 0 1 -49.743492 -18.286664)" clip-rule="evenodd" fill="rgb(0,0,0)" fill-rule="evenodd" stroke="none" stroke-width="1"/></g></g><g id="e2fTiUsdp6I35"><g id="e2fTiUsdp6I36"><path id="e2fTiUsdp6I37" d="M168.516,110.706C168.922,111.75,169.28,112.35,169.385,112.992C170.081,117.219,170.808,121.444,171.344,125.692C171.597,127.698,170.962,128.279,168.976,128.533C168.372,128.61,167.751,128.604,167.141,128.576C165.647,128.508,164.758,127.884,164.824,126.206C165.012,121.421,165.097,116.631,165.344,111.848C165.383,111.099,165.995,109.83,166.451,109.78C167.177,109.7,167.994,110.441,168.516,110.706Z" transform="matrix(1 0 0 1 -49.743492 -18.286664)" clip-rule="evenodd" fill="rgb(0,0,0)" fill-rule="evenodd" stroke="none" stroke-width="1"/><path id="e2fTiUsdp6I38" d="M170.406,101.146C172.188,100.834,173.96,100.412,175.755,100.25C176.788,100.158,177.277,100.79,176.721,101.892C176.346,102.634,175.9,103.396,175.771,104.196C175.247,107.441,172.796,109.138,170.51,110.984C170.343,111.118,170.002,111.318,169.944,111.265C168.77,110.198,167.072,109.287,166.617,107.956C166.072,106.361,168.875,102.372,170.406,101.146Z" transform="matrix(1 0 0 1 -49.743492 -18.286664)" clip-rule="evenodd" fill="rgb(0,0,0)" fill-rule="evenodd" stroke="none" stroke-width="1"/><path id="e2fTiUsdp6I39" d="M168.751,137.215C167.606,135.923,166.546,134.768,165.544,133.564C165.315,133.29,165.213,132.847,165.2,132.476C165.19,132.175,165.494,131.869,165.501,131.561C165.55,129.346,165.538,129.346,167.791,129.385C168.125,129.391,168.46,129.398,168.794,129.388C171.149,129.318,171.587,129.737,171.662,132.15C171.744,134.751,170.469,136.782,168.751,137.215Z" transform="matrix(1 0 0 1 -49.743492 -18.286664)" clip-rule="evenodd" fill="rgb(0,0,0)" fill-rule="evenodd" stroke="none" stroke-width="1"/><path id="e2fTiUsdp6I40" d="M177.485,101.803C178.81,102.622,179.972,103.516,181.274,104.095C182.574,104.675,184.014,104.939,185.413,105.346C185.58,108.063,185.587,108.038,182.892,107.195C181.834,106.863,180.737,106.646,179.649,106.418C176.5,105.76,176.14,105.041,177.485,101.803Z" transform="matrix(1 0 0 1 -49.743492 -18.286664)" clip-rule="evenodd" fill="rgb(0,0,0)" fill-rule="evenodd" stroke="none" stroke-width="1"/><path id="e2fTiUsdp6I41" d="M190.987,104.124C190.07,106.071,188.969,107.703,186.364,106.956C186.813,104.57,186.875,104.534,190.987,104.124Z" transform="matrix(1 0 0 1 -49.743492 -18.286664)" clip-rule="evenodd" fill="rgb(0,0,0)" fill-rule="evenodd" stroke="none" stroke-width="1"/><path id="e2fTiUsdp6I42" d="M167.597,137.809C166.106,136.85,164.648,135.976,163.269,134.99C162.838,134.681,162.621,134.073,162.306,133.603C162.911,133.473,163.556,133.141,164.115,133.249C165.862,133.587,167.481,135.808,167.597,137.809Z" transform="matrix(1 0 0 1 -49.743492 -18.286664)" clip-rule="evenodd" fill="rgb(0,0,0)" fill-rule="evenodd" stroke="none" stroke-width="1"/></g></g><g id="e2fTiUsdp6I43"><g id="e2fTiUsdp6I44"><path id="e2fTiUsdp6I45" d="M96.245,159.219C100.862,159.431,100.831,159.433,101.181,163.716C101.307,165.264,101.583,166.803,101.858,168.335C102.108,169.728,102.052,169.857,100.446,170.173C100.626,172.922,99.111,174.323,96.433,174.743C96.576,174.342,96.728,173.915,96.964,173.25C96.552,173.582,96.299,173.784,95.975,174.045C95.683,171.255,97.864,170.813,99.407,170.058C99.192,169.537,98.781,169.014,98.799,168.506C98.92,164.991,97.278,162.097,95.687,159.168C95.413,158.664,95.127,158.064,95.147,157.521C95.291,153.493,98,150.173,101.887,149.148C105.822,148.11,106.403,148.317,108.323,151.913C108.531,152.303,108.128,153.246,107.735,153.692C105.387,156.357,102.6,158.254,98.894,158.474C98.157,158.518,97.437,158.873,96.245,159.219Z" transform="matrix(1 0 0 1 -49.743492 -18.286664)" clip-rule="evenodd" fill="rgb(0,0,0)" fill-rule="evenodd" stroke="none" stroke-width="1"/><path id="e2fTiUsdp6I46" d="M107.804,150.655C106.647,148.872,107.24,147.52,108.78,147.645C114.871,148.14,120.949,148.793,127.031,149.396C127.246,149.417,127.502,149.481,127.653,149.619C129.158,151.002,128.532,152.693,128.197,154.269C127.93,155.527,127.469,156.822,125.752,156.701C125.089,156.655,124.407,156.603,123.774,156.418C119.506,155.171,115.222,153.971,111.005,152.568C109.686,152.13,108.557,151.119,107.804,150.655Z" transform="matrix(1 0 0 1 -49.743492 -18.286664)" clip-rule="evenodd" fill="rgb(0,0,0)" fill-rule="evenodd" stroke="none" stroke-width="1"/><path id="e2fTiUsdp6I47" d="M138.225,155.437C137.527,158.03,132.054,158.974,129.165,156.746C128.962,156.588,128.824,156.174,128.86,155.908C129.062,154.427,129.315,152.953,129.581,151.482C129.639,151.169,129.761,150.819,129.968,150.589C130.38,150.135,134.093,150.77,134.509,151.255C135.632,152.566,136.799,153.837,138.225,155.437Z" transform="matrix(1 0 0 1 -49.743492 -18.286664)" clip-rule="evenodd" fill="rgb(0,0,0)" fill-rule="evenodd" stroke="none" stroke-width="1"/><path id="e2fTiUsdp6I48" d="M139.276,153.778C139.408,153.942,139.539,154.106,139.671,154.269C140.952,154.698,142.233,155.127,143.627,155.594C142.127,156.089,140.704,156.558,139.285,157.026C139.046,156.261,138.72,155.406,138.547,154.521C138.51,154.329,139.019,154.029,139.276,153.778Z" transform="matrix(1 0 0 1 -49.743492 -18.286664)" clip-rule="evenodd" fill="rgb(0,0,0)" fill-rule="evenodd" stroke="none" stroke-width="1"/></g></g><g id="e2fTiUsdp6I49"><g id="e2fTiUsdp6I50"><path id="e2fTiUsdp6I51" d="M159.704,94.028C160,94.804,160.452,95.558,160.565,96.36C161.241,101.148,161.939,105.937,162.424,110.746C162.674,113.226,161.882,113.917,159.417,114.108C158.919,114.147,158.414,114.146,157.916,114.107C155.383,113.903,154.858,113.463,154.972,110.922C155.216,105.53,155.56,100.142,155.985,94.762C156.049,93.95,156.725,92.567,157.183,92.54C158.031,92.489,158.926,93.246,159.803,93.665C159.77,93.787,159.737,93.908,159.704,94.028Z" transform="matrix(1 0 0 1 -49.743492 -18.286664)" clip-rule="evenodd" fill="rgb(0,0,0)" fill-rule="evenodd" stroke="none" stroke-width="1"/><path id="e2fTiUsdp6I52" d="M169.984,82.915C169.17,84.599,168.135,86.216,167.592,87.984C166.619,91.144,163.813,92.384,161.564,94.212C161.345,94.39,160.606,94.193,160.293,93.941C159.44,93.248,158.629,92.48,157.919,91.642C157.621,91.291,157.386,90.607,157.524,90.216C158.022,88.802,158.596,87.397,159.314,86.082C160.872,83.229,165.213,81.257,168.348,81.952C168.931,82.082,169.43,82.586,169.964,82.92C169.962,82.922,169.984,82.915,169.984,82.915Z" transform="matrix(1 0 0 1 -49.743492 -18.286664)" clip-rule="evenodd" fill="rgb(0,0,0)" fill-rule="evenodd" stroke="none" stroke-width="1"/><path id="e2fTiUsdp6I53" d="M159.174,124.111C157.827,122.506,156.262,121.257,155.589,119.636C155.072,118.391,155.652,116.676,155.844,115.182C155.859,115.064,156.656,114.998,157.09,114.994C158.09,114.985,159.127,115.205,160.084,115.012C161.668,114.692,162.131,115.468,162.43,116.782C163.065,119.566,161.747,123.74,159.174,124.111Z" transform="matrix(1 0 0 1 -49.743492 -18.286664)" clip-rule="evenodd" fill="rgb(0,0,0)" fill-rule="evenodd" stroke="none" stroke-width="1"/><path id="e2fTiUsdp6I54" d="M179.645,88.391C179.285,90.914,179.313,90.84,177.011,89.995C175.411,89.408,173.736,89.009,172.073,88.617C169.153,87.929,168.669,87.167,169.511,84.328C169.653,83.854,169.823,83.388,169.981,82.916C169.984,82.915,169.961,82.922,169.964,82.92C172.532,85.104,175.244,86.969,178.747,87.33C179.075,87.364,179.334,88.075,179.624,88.472C179.625,88.471,179.645,88.391,179.645,88.391Z" transform="matrix(1 0 0 1 -49.743492 -18.286664)" clip-rule="evenodd" fill="rgb(0,0,0)" fill-rule="evenodd" stroke="none" stroke-width="1"/><path id="e2fTiUsdp6I55" d="M179.645,88.391C179.645,88.391,179.625,88.472,179.625,88.472C181.031,85.578,181.806,85.066,184.578,85.31C184.157,85.529,183.85,85.689,183.544,85.849C183.564,85.919,183.583,85.989,183.602,86.059C183.998,86.006,184.394,85.955,184.413,85.953C184.459,86.398,184.616,86.854,184.531,87.259C184.228,88.687,180.824,89.784,179.656,88.852C179.578,88.79,179.645,88.548,179.645,88.391Z" transform="matrix(1 0 0 1 -49.743492 -18.286664)" clip-rule="evenodd" fill="rgb(0,0,0)" fill-rule="evenodd" stroke="none" stroke-width="1"/><path id="e2fTiUsdp6I56" d="M160.174,125.195C161.228,125.163,162.255,125.133,163.276,125.103C163.342,126.275,163.411,127.492,163.49,128.902C162.295,127.566,161.226,126.371,160.174,125.195Z" transform="matrix(1 0 0 1 -49.743492 -18.286664)" clip-rule="evenodd" fill="rgb(0,0,0)" fill-rule="evenodd" stroke="none" stroke-width="1"/></g></g><g id="e2fTiUsdp6I57"><g id="e2fTiUsdp6I58"><path id="e2fTiUsdp6I59" d="M81.683,142.717C84.108,143.096,84.306,143.309,84.491,145.826C84.553,146.658,84.449,147.563,84.747,148.304C85.655,150.564,84.012,152.049,83.178,153.736C82.904,154.289,81.97,154.556,81.288,154.821C81.197,154.856,80.509,153.999,80.604,153.746C80.855,153.076,81.33,152.459,81.824,151.922C82.103,151.621,82.598,151.517,82.991,151.327C82.883,150.973,82.665,150.622,82.691,150.289C82.906,147.578,81.5,145.392,80.47,143.069C80.162,142.375,79.935,141.491,80.08,140.776C80.816,137.123,83.623,134.878,87.47,134.771C87.831,134.761,88.328,135.02,88.552,135.314C90.483,137.86,90.545,137.962,88.073,140.056C86.984,140.978,85.539,141.512,84.2,142.093C83.417,142.433,82.525,142.519,81.683,142.717Z" transform="matrix(1 0 0 1 -49.743492 -18.286664)" clip-rule="evenodd" fill="rgb(0,0,0)" fill-rule="evenodd" stroke="none" stroke-width="1"/><path id="e2fTiUsdp6I60" d="M89.618,136.387C88.743,134.947,89.111,134.051,90.393,134.148C95.042,134.503,99.683,134.981,104.314,135.525C104.739,135.575,105.338,136.398,105.387,136.906C105.473,137.816,105.278,138.778,105.06,139.684C104.781,140.843,103.952,141.358,102.79,141.024C99.003,139.937,95.216,138.848,91.463,137.649C90.668,137.396,90.022,136.674,89.618,136.387Z" transform="matrix(1 0 0 1 -49.743492 -18.286664)" clip-rule="evenodd" fill="rgb(0,0,0)" fill-rule="evenodd" stroke="none" stroke-width="1"/><path id="e2fTiUsdp6I61" d="M112.818,139.979C111.715,142.071,107.915,142.887,106.069,141.189C105.848,140.986,105.782,140.536,105.777,140.197C105.771,139.818,105.933,139.44,105.991,139.057C106.461,136.004,106.46,135.991,109.319,136.343C109.583,136.375,109.842,136.678,110.05,136.905C110.962,137.896,111.854,138.905,112.818,139.979Z" transform="matrix(1 0 0 1 -49.743492 -18.286664)" clip-rule="evenodd" fill="rgb(0,0,0)" fill-rule="evenodd" stroke="none" stroke-width="1"/></g></g><g id="e2fTiUsdp6I62"><g id="e2fTiUsdp6I63"><path id="e2fTiUsdp6I64" d="M140.611,78.663C139.333,77.858,139.438,76.825,139.852,75.517C140.574,73.235,141.553,71.31,143.986,70.424C145.715,69.795,147.316,69.403,148.956,70.702C151.071,72.378,153.542,73.178,156.342,73.151C156.72,72.681,157.094,71.882,157.718,71.55C158.243,71.27,159.058,71.532,159.744,71.556C159.61,72.128,159.647,72.861,159.298,73.236C158.803,73.772,158.023,74.042,157.368,74.433C156.931,74.694,156.528,75.042,156.059,75.213C155.64,75.366,155.136,75.428,154.697,75.36C153.322,75.148,151.968,74.807,150.593,74.602C148.252,74.251,148.11,74.135,147.92,71.514C147.646,72.226,147.39,72.642,147.335,73.083C147.024,75.569,145.624,77.342,143.79,78.918C142.854,79.721,142.131,80.254,141.263,78.917C141.15,78.743,140.785,78.73,140.536,78.643L140.611,78.663Z" transform="matrix(1 0 0 1 -49.743492 -18.286664)" clip-rule="evenodd" fill="rgb(0,0,0)" fill-rule="evenodd" stroke="none" stroke-width="1"/><path id="e2fTiUsdp6I65" d="M140.538,78.643C141.283,80.047,142.292,81.376,142.717,82.872C143.581,85.909,144.207,89.021,144.778,92.131C145.136,94.084,144.466,94.747,142.342,95.021C140.007,95.323,139.236,94.911,139.124,92.912C138.887,88.701,138.784,84.483,138.65,80.266C138.609,78.935,139.181,78.254,140.608,78.663C140.611,78.663,140.538,78.643,140.538,78.643Z" transform="matrix(1 0 0 1 -49.743492 -18.286664)" clip-rule="evenodd" fill="rgb(0,0,0)" fill-rule="evenodd" stroke="none" stroke-width="1"/><path id="e2fTiUsdp6I66" d="M144.52,95.494C146.259,98.267,145.611,101.369,143.236,102.501C142.171,101.467,140.946,100.618,140.221,99.458C139.724,98.662,139.793,97.421,139.89,96.406C139.915,96.135,140.96,95.869,141.566,95.768C142.542,95.604,143.542,95.578,144.52,95.494Z" transform="matrix(1 0 0 1 -49.743492 -18.286664)" clip-rule="evenodd" fill="rgb(0,0,0)" fill-rule="evenodd" stroke="none" stroke-width="1"/></g></g><g id="e2fTiUsdp6I67"><g id="e2fTiUsdp6I68"><path id="e2fTiUsdp6I69" d="M144.878,157.864C144.82,156.975,144.764,156.087,144.708,155.199C145.451,155.741,146.249,156.221,146.919,156.84C147.552,157.423,148.051,158.151,148.675,158.731C147.897,157.481,147.01,156.285,146.362,154.971C144.555,151.31,144.275,147.387,144.775,143.412C145.109,140.749,146.507,140.22,148.661,141.871C150.676,143.418,152.323,145.251,152.907,147.858C153.217,149.239,154.034,150.23,155.572,150.396C155.573,150.396,155.492,150.382,155.492,150.382C156.753,150.916,157.976,151.59,159.284,151.956C162.499,152.853,165.139,154.631,167.391,157.012C169.181,158.903,169.232,160.832,167.703,162.881C165.071,166.408,163.031,166.898,159.094,164.813C156.98,163.693,154.955,162.41,152.863,161.25C151.628,160.566,150.525,159.846,148.87,159.846C147.513,159.846,146.156,158.557,144.798,157.841L144.878,157.864Z" transform="matrix(1 0 0 1 -49.743492 -18.286664)" clip-rule="evenodd" fill="rgb(0,0,0)" fill-rule="evenodd" stroke="none" stroke-width="1"/><path id="e2fTiUsdp6I70" d="M161.431,148.299C161.032,147.744,160.348,146.798,159.67,145.846C158.696,144.476,157.432,143.839,155.693,143.841C152.913,143.844,150.685,142.424,148.767,140.562C147.561,139.391,147.787,138.34,149.23,137.437C154.881,133.897,163.804,134.986,168.441,139.788C170.453,141.872,172.509,143.917,174.443,146.071C177.399,149.362,176.943,153.08,173.339,155.709C171.719,156.892,170.031,156.598,168.466,155.667C165.603,153.962,163.165,151.793,161.431,148.299Z" transform="matrix(1 0 0 1 -49.743492 -18.286664)" clip-rule="evenodd" fill="rgb(0,0,0)" fill-rule="evenodd" stroke="none" stroke-width="1"/><path id="e2fTiUsdp6I71" d="M177.297,162.409C175.319,165.37,170.467,167.019,166.297,165.997C168.548,164.196,169.926,161.94,170.233,159.272C172.577,160.313,174.882,161.337,177.297,162.409Z" transform="matrix(1 0 0 1 -49.743492 -18.286664)" clip-rule="evenodd" fill="rgb(0,0,0)" fill-rule="evenodd" stroke="none" stroke-width="1"/><path id="e2fTiUsdp6I72" d="M177.774,161.643C175.603,160.36,173.432,159.076,171.248,157.784C173.803,156.609,176.054,155.047,176.88,152.057C178.737,154.255,179.141,158.827,177.774,161.643Z" transform="matrix(1 0 0 1 -49.743492 -18.286664)" clip-rule="evenodd" fill="rgb(0,0,0)" fill-rule="evenodd" stroke="none" stroke-width="1"/><path id="e2fTiUsdp6I73" d="M155.712,146.773C157.447,148.314,159.182,149.856,161.155,151.608C159.042,151.15,157.268,150.767,155.494,150.382C155.493,150.382,155.574,150.396,155.573,150.396C154.524,148.714,153.477,147.032,152.164,144.924C153.3,145.307,153.925,145.519,154.548,145.73C154.935,146.078,155.324,146.425,155.712,146.773Z" transform="matrix(1 0 0 1 -49.743492 -18.286664)" clip-rule="evenodd" fill="rgb(0,0,0)" fill-rule="evenodd" stroke="none" stroke-width="1"/><path id="e2fTiUsdp6I74" d="M155.712,146.773C155.324,146.425,154.935,146.078,154.547,145.731C154.101,145.32,153.655,144.909,153.168,144.46C157.45,143.998,158.309,144.606,161.929,150.867C159.59,149.327,157.651,148.05,155.712,146.773Z" transform="matrix(1 0 0 1 -49.743492 -18.286664)" clip-rule="evenodd" fill="rgb(0,0,0)" fill-rule="evenodd" stroke="none" stroke-width="1"/></g></g><g id="e2fTiUsdp6I75"><path id="e2fTiUsdp6I76" d="M139.276,153.778C135.882,151.95,135.37,150.727,137.428,147.619C142.717,139.635,148.189,131.773,155.043,125.001C156.463,123.597,157.232,123.553,158.449,125.143C159.621,126.676,160.58,128.393,161.473,130.111C162.098,131.31,161.676,132.346,160.286,132.673C158.501,133.093,156.684,133.385,154.884,133.738C151.76,134.35,148.9,135.503,146.652,137.855C143.742,140.899,142.75,144.528,143.522,148.634C143.798,150.108,144.209,151.559,144.602,153.009C144.964,154.349,144.488,154.942,143.118,154.77C141.966,154.626,140.82,154.437,139.671,154.268C139.54,154.106,139.409,153.942,139.276,153.778Z" transform="matrix(1 0 0 1 -49.743492 -18.286664)" clip-rule="evenodd" fill="rgb(0,0,0)" fill-rule="evenodd" stroke="none" stroke-width="1"/></g><g id="e2fTiUsdp6I77"><path id="e2fTiUsdp6I78" d="M130.742,146.231C130.872,145.973,131.003,145.716,131.133,145.459C131.706,144.65,132.332,143.871,132.844,143.023C137.544,135.255,143.259,128.301,149.751,121.975C150.347,121.395,151.035,120.906,151.695,120.395C152.664,119.646,153.639,119.275,154.623,120.397C155.561,121.464,155.998,122.596,155.009,123.847C154.284,124.763,153.538,125.675,152.709,126.495C147.373,131.776,142.907,137.735,138.888,144.053C137.963,145.507,137.004,146.974,135.836,148.224C135.177,148.929,134.1,149.477,133.141,149.618C131.085,149.92,130.299,148.889,130.764,146.886C130.812,146.682,130.751,146.451,130.742,146.231Z" transform="matrix(1 0 0 1 -49.743492 -18.286664)" clip-rule="evenodd" fill="rgb(0,0,0)" fill-rule="evenodd" stroke="none" stroke-width="1"/></g><g id="e2fTiUsdp6I79"><path id="e2fTiUsdp6I80" d="M130.742,146.231C129.49,148.504,128.544,149.063,126.926,148.483C125.132,147.841,123.668,145.526,124.151,143.695C124.589,142.039,125.168,140.37,125.989,138.873C131.063,129.629,137.758,121.708,145.838,114.95C146.265,114.593,146.719,114.26,147.196,113.975C149.356,112.684,150.782,112.945,152.069,114.837C153.331,116.692,153.038,118.483,151.284,119.94C143.558,126.355,137.353,134.031,132.433,142.762C131.943,143.63,131.563,144.559,131.132,145.459C131.002,145.716,130.872,145.974,130.742,146.231Z" transform="matrix(1 0 0 1 -49.743492 -18.286664)" clip-rule="evenodd" fill="rgb(0,0,0)" fill-rule="evenodd" stroke="none" stroke-width="1"/></g><g id="e2fTiUsdp6I81"><path id="e2fTiUsdp6I82" d="M148.993,111.558C136.987,120.224,128.105,131.25,122.097,145.171C120.75,143.633,119.41,142.319,118.339,140.817C117.277,139.329,117.771,137.728,118.581,136.234C122.511,128.988,126.955,122.131,133.484,116.898C136.397,114.564,139.304,112.209,142.359,110.069C145.253,108.042,146.879,108.507,148.993,111.558Z" transform="matrix(1 0 0 1 -49.743492 -18.286664)" clip-rule="evenodd" fill="rgb(0,0,0)" fill-rule="evenodd" stroke="none" stroke-width="1"/></g><g id="e2fTiUsdp6I83"><path id="e2fTiUsdp6I84" d="M129.722,102.534C130.911,101.919,132.239,101.217,133.58,100.543C135.868,99.395,138.02,99.703,139.986,101.266C141.248,102.269,142.461,103.339,143.65,104.429C145.065,105.726,145.046,106.7,143.491,107.814C141.273,109.401,138.914,110.798,136.734,112.435C128.307,118.764,121.54,126.457,117.365,136.261C116.036,139.384,115.105,139.701,112.448,137.529C107.173,133.215,106.524,130.098,109.147,124.921C112.98,117.355,118.41,111.063,125.135,105.898C126.592,104.778,128.098,103.722,129.722,102.534Z" transform="matrix(1 0 0 1 -49.743492 -18.286664)" clip-rule="evenodd" fill="rgb(0,0,0)" fill-rule="evenodd" stroke="none" stroke-width="1"/></g><g id="e2fTiUsdp6I85"><path id="e2fTiUsdp6I86" d="M116.973,92.541C119.234,90.474,121.725,90.415,124.286,91.724C126.758,92.987,129.289,94.192,131.58,95.74C133.806,97.244,133.706,98.539,131.481,99.938C121.457,106.24,113.539,114.5,107.903,124.938C107.272,126.105,106.446,127.178,105.632,128.234C104.89,129.197,103.986,129.427,102.874,128.682C99.425,126.37,97.069,123.201,96.343,119.168C96.057,117.582,96.597,115.505,97.484,114.113C100.079,110.047,102.757,105.965,105.935,102.356C109.188,98.662,113.07,95.522,116.677,92.139C116.776,92.272,116.875,92.407,116.973,92.541Z" transform="matrix(1 0 0 1 -49.743492 -18.286664)" clip-rule="evenodd" fill="rgb(0,0,0)" fill-rule="evenodd" stroke="none" stroke-width="1"/></g><g id="e2fTiUsdp6I87"><path id="e2fTiUsdp6I88" d="M95.35,117.699C93.617,116.244,91.954,115.13,90.642,113.694C86.633,109.303,85.464,104.459,88.242,98.825C91.794,91.62,97.216,86.306,104.043,82.3C105.6,81.388,107.364,81.09,109.022,81.915C111.746,83.27,114.516,84.606,117.019,86.314C119.003,87.667,118.822,88.524,116.978,90.1C114.353,92.344,111.644,94.498,109.13,96.859C103.409,102.231,98.879,108.443,96.22,115.909C96.073,116.319,95.841,116.698,95.35,117.699Z" transform="matrix(1 0 0 1 -49.743492 -18.286664)" clip-rule="evenodd" fill="rgb(0,0,0)" fill-rule="evenodd" stroke="none" stroke-width="1"/></g><g id="e2fTiUsdp6I89"><path id="e2fTiUsdp6I90" d="M84.483,103.309C82.803,100.265,81.105,97.652,79.887,94.831C78.955,92.669,78.277,90.271,78.103,87.932C77.629,81.564,82.304,76.168,88.681,75.508C93.874,74.97,98.588,76.668,103.098,79.024C104.353,79.68,103.862,80.425,103,81.044C100.556,82.801,98.021,84.442,95.668,86.316C90.529,90.409,86.626,95.385,85.131,101.96C85.065,102.259,84.866,102.529,84.483,103.309Z" transform="matrix(1 0 0 1 -49.743492 -18.286664)" clip-rule="evenodd" fill="rgb(0,0,0)" fill-rule="evenodd" stroke="none" stroke-width="1"/></g><g id="e2fTiUsdp6I91"><path id="e2fTiUsdp6I92" d="M76.206,84.218C73.274,81.989,70.944,79.295,69.846,75.693C69.108,73.271,69.421,71.002,71.419,69.272C73.696,67.3,76.348,66.733,79.223,67.738C82.048,68.724,84.175,70.683,86.054,72.934C86.578,73.563,86.868,74.275,85.763,74.592C81.095,75.931,78.457,79.244,76.88,83.616C76.825,83.767,76.707,83.897,76.606,84.028C76.576,84.067,76.509,84.077,76.206,84.218Z" transform="matrix(1 0 0 1 -49.743492 -18.286664)" clip-rule="evenodd" fill="rgb(0,0,0)" fill-rule="evenodd" stroke="none" stroke-width="1"/></g><g id="e2fTiUsdp6I93"><path id="e2fTiUsdp6I94" d="M77.905,65.861C77.473,65.895,77.197,65.975,76.943,65.929C73.949,65.385,71.789,66.704,69.983,68.939C68.627,70.618,68.031,70.596,66.898,68.777C64.841,65.479,64.101,61.758,63.82,57.964C63.759,57.153,64.276,55.953,64.923,55.509C66.356,54.524,67.969,53.56,69.639,53.213C72.917,52.532,74.675,53.742,75.651,56.926C76.401,59.375,77.029,61.86,77.688,64.336C77.81,64.797,77.827,65.285,77.905,65.861Z" transform="matrix(1 0 0 1 -49.743492 -18.286664)" clip-rule="evenodd" fill="rgb(0,0,0)" fill-rule="evenodd" stroke="none" stroke-width="1"/></g><g id="e2fTiUsdp6I95"><path id="e2fTiUsdp6I96" d="M63.299,52.701C63.284,51.394,63.129,50.492,63.288,49.648C64.123,45.204,65.919,41.144,68.53,37.465C69.673,35.855,70.503,35.905,71.483,37.672C72.414,39.35,73.709,40.429,75.545,40.868C76.948,41.203,77.542,42.054,77.18,43.439C76.527,45.949,75.892,48.471,75.076,50.93C74.733,51.963,73.812,52.466,72.566,52.494C70.313,52.547,68.066,52.851,65.812,52.968C65.025,53.009,64.227,52.807,63.299,52.701Z" transform="matrix(1 0 0 1 -49.743492 -18.286664)" clip-rule="evenodd" fill="rgb(0,0,0)" fill-rule="evenodd" stroke="none" stroke-width="1"/></g><g id="e2fTiUsdp6I97"><path id="e2fTiUsdp6I98" d="M89.835,26.601C89.722,28.389,89.581,30.177,89.509,31.967C89.475,32.85,89.461,33.76,89.632,34.619C89.974,36.332,89.339,37.35,87.585,37.516C86.814,37.589,86.006,37.372,85.253,37.504C83.524,37.804,81.7,37.97,80.128,38.669C76.812,40.142,73.25,38.748,72.293,35.231C72.143,34.679,72.398,33.689,72.821,33.36C77.472,29.76,82.619,27.204,88.51,26.384C89.245,26.281,90.02,26.463,90.777,26.512C90.464,26.542,90.149,26.572,89.835,26.601Z" transform="matrix(1 0 0 1 -49.743492 -18.286664)" clip-rule="evenodd" fill="rgb(0,0,0)" fill-rule="evenodd" stroke="none" stroke-width="1"/></g><g id="e2fTiUsdp6I99"><path id="e2fTiUsdp6I100" d="M101.831,54.945C100.554,49.602,96.985,46.014,93.796,42.173C91.215,39.063,90.487,35.413,90.965,31.503C91.153,29.968,91.434,28.189,93.201,27.701C94.979,27.21,95.992,28.75,96.745,29.962C98.68,33.079,100.444,36.305,102.181,39.538C103.315,41.645,104.161,43.914,105.369,45.974C106.192,47.379,107.43,48.538,108.455,49.828C108.814,50.28,109.445,50.927,109.325,51.253C109.138,51.763,108.453,52.146,107.905,52.444C107.537,52.646,107.03,52.711,106.604,52.663C104.625,52.449,102.764,52.438,101.831,54.945Z" transform="matrix(1 0 0 1 -49.743492 -18.286664)" clip-rule="evenodd" fill="rgb(0,0,0)" fill-rule="evenodd" stroke="none" stroke-width="1"/></g><g id="e2fTiUsdp6I101"><path id="e2fTiUsdp6I102" d="M109.699,53.473C109.265,53.953,108.721,54.373,108.421,54.926C107.915,55.858,107.586,56.884,107.137,57.848C106.808,58.553,106.561,59.55,105.994,59.817C105.438,60.081,104.398,59.781,103.793,59.387C102.542,58.571,101.6,57.436,102.098,55.753C102.606,54.037,103.825,53.473,105.553,53.567C106.3,53.609,107.061,53.262,107.824,53.135C108.379,53.044,108.948,53.025,109.511,52.974C109.573,53.141,109.636,53.307,109.699,53.473Z" transform="matrix(1 0 0 1 -49.743492 -18.286664)" clip-rule="evenodd" fill="rgb(0,0,0)" fill-rule="evenodd" stroke="none" stroke-width="1"/></g><g id="e2fTiUsdp6I103"><path id="e2fTiUsdp6I104" d="M82.481,53.541C83.116,50.886,84.923,49.426,87.404,48.739C91.53,47.597,98.178,50.187,100.435,53.806C100.685,54.207,100.752,54.744,100.823,55.23C101.126,57.302,101.8,59.126,103.839,60.128C104.89,60.644,104.599,61.274,104.01,61.982C101.881,64.542,97.858,64.924,95.282,62.784C93.325,61.159,92.33,59.056,92.199,56.53C92.102,54.665,91.532,53.056,89.92,51.92C87.568,50.264,85.33,50.47,83.357,52.588C83.062,52.903,82.773,53.223,82.481,53.541Z" transform="matrix(1 0 0 1 -49.743492 -18.286664)" clip-rule="evenodd" fill="rgb(0,0,0)" fill-rule="evenodd" stroke="none" stroke-width="1"/></g></svg>